<svg xmlns="http://www.w3.org/2000/svg" xmlns:xlink="http://www.w3.org/1999/xlink" width="200" zoomAndPan="magnify" viewBox="0 0 150 56.249996" height="75" preserveAspectRatio="xMidYMid meet" version="1.0"><defs><g/><clipPath id="bcce0cc961"><path d="M 4 3 L 51 3 L 51 51 L 4 51 Z M 4 3 " clip-rule="nonzero"/></clipPath><clipPath id="5bc08f7d77"><path d="M 9.628906 -0.589844 L 55.089844 9.460938 L 45.039062 54.917969 L -0.421875 44.867188 Z M 9.628906 -0.589844 " clip-rule="nonzero"/></clipPath><clipPath id="af978a2c06"><path d="M 32.359375 4.433594 C 19.808594 1.660156 7.378906 9.585938 4.605469 22.136719 C 1.828125 34.691406 9.753906 47.117188 22.308594 49.894531 C 34.863281 52.667969 47.289062 44.742188 50.0625 32.1875 C 52.839844 19.636719 44.914062 7.210938 32.359375 4.433594 Z M 32.359375 4.433594 " clip-rule="nonzero"/></clipPath><clipPath id="e1e563a299"><path d="M 0 0 L 47 0 L 47 48 L 0 48 Z M 0 0 " clip-rule="nonzero"/></clipPath><clipPath id="5619b25183"><path d="M 5.628906 -3.589844 L 51.089844 6.460938 L 41.039062 51.917969 L -4.421875 41.867188 Z M 5.628906 -3.589844 " clip-rule="nonzero"/></clipPath><clipPath id="872dd3b3bb"><path d="M 28.359375 1.433594 C 15.808594 -1.339844 3.378906 6.585938 0.605469 19.136719 C -2.171875 31.691406 5.753906 44.117188 18.308594 46.894531 C 30.863281 49.667969 43.289062 41.742188 46.0625 29.1875 C 48.839844 16.636719 40.914062 4.210938 28.359375 1.433594 Z M 28.359375 1.433594 " clip-rule="nonzero"/></clipPath><clipPath id="8525fd599a"><rect x="0" width="47" y="0" height="48"/></clipPath><clipPath id="0fbb85bb56"><path d="M 5 4 L 50 4 L 50 50 L 5 50 Z M 5 4 " clip-rule="nonzero"/></clipPath><clipPath id="45d6e4fd04"><path d="M 49.957031 48.578125 L 6.316406 50.148438 L 4.722656 5.769531 L 48.363281 4.199219 Z M 49.957031 48.578125 " clip-rule="nonzero"/></clipPath><clipPath id="722dd230d3"><path d="M 49.957031 48.578125 L 6.316406 50.148438 L 4.722656 5.769531 L 48.363281 4.199219 Z M 49.957031 48.578125 " clip-rule="nonzero"/></clipPath><clipPath id="3395560cc7"><path d="M 6 6 L 48 6 L 48 48 L 6 48 Z M 6 6 " clip-rule="nonzero"/></clipPath><clipPath id="57148a10fe"><path d="M 4.476562 45.148438 L 9.34375 4.296875 L 50.195312 9.164062 L 45.328125 50.019531 Z M 4.476562 45.148438 " clip-rule="nonzero"/></clipPath><clipPath id="04a8688943"><path d="M 6.910156 24.722656 C 5.566406 36.003906 13.621094 46.238281 24.902344 47.582031 C 36.183594 48.929688 46.417969 40.871094 47.761719 29.589844 C 49.105469 18.3125 41.050781 8.074219 29.769531 6.730469 C 18.488281 5.386719 8.253906 13.441406 6.910156 24.722656 Z M 6.910156 24.722656 " clip-rule="nonzero"/></clipPath><clipPath id="4d264b9cf7"><path d="M 0 0 L 42 0 L 42 42 L 0 42 Z M 0 0 " clip-rule="nonzero"/></clipPath><clipPath id="44f4f1f0a8"><path d="M -1.523438 39.148438 L 3.34375 -1.703125 L 44.195312 3.164062 L 39.328125 44.019531 Z M -1.523438 39.148438 " clip-rule="nonzero"/></clipPath><clipPath id="acc73d8dd3"><path d="M 0.910156 18.722656 C -0.433594 30.003906 7.621094 40.238281 18.902344 41.582031 C 30.183594 42.929688 40.417969 34.871094 41.761719 23.589844 C 43.105469 12.3125 35.050781 2.074219 23.769531 0.730469 C 12.488281 -0.613281 2.253906 7.441406 0.910156 18.722656 Z M 0.910156 18.722656 " clip-rule="nonzero"/></clipPath><clipPath id="e9f62f11be"><rect x="0" width="42" y="0" height="42"/></clipPath></defs><g fill="#000000" fill-opacity="1"><g transform="translate(51.511555, 21.093746)"><g><path d="M 7.671875 -10.765625 C 6.160156 -11.148438 4.757812 -11.222656 3.46875 -10.984375 C 3.101562 -10.921875 2.863281 -11.0625 2.75 -11.40625 L 2.65625 -11.765625 L 2.40625 -13.171875 C 2.300781 -13.722656 2.164062 -14.179688 2 -14.546875 C 1.914062 -14.742188 2 -14.847656 2.25 -14.859375 L 2.71875 -14.875 L 3.203125 -14.890625 C 3.566406 -14.910156 3.878906 -14.960938 4.140625 -15.046875 L 4.25 -15.0625 L 4.359375 -15.109375 C 4.441406 -15.140625 4.472656 -15.195312 4.453125 -15.28125 C 4.441406 -15.363281 4.394531 -15.421875 4.3125 -15.453125 L 4.203125 -15.46875 L 4.09375 -15.46875 L 0.71875 -15.59375 C 0.5625 -15.59375 0.40625 -15.503906 0.25 -15.328125 C 0.0820312 -15.148438 0 -14.984375 0 -14.828125 L 0.03125 -13.625 L 0.046875 -12.421875 C 0.0664062 -11.472656 0.0625 -10.671875 0.03125 -10.015625 C 0.0078125 -9.398438 0.0195312 -8.679688 0.0625 -7.859375 L 0.125 -6.78125 L 0.1875 -5.71875 C 0.300781 -3.914062 0.289062 -2.476562 0.15625 -1.40625 C 0.0820312 -0.96875 0.257812 -0.597656 0.6875 -0.296875 C 1.101562 0.00390625 1.515625 0.078125 1.921875 -0.078125 C 2.753906 -0.421875 3.984375 -0.640625 5.609375 -0.734375 L 5.953125 -0.75 L 6.3125 -0.765625 C 6.582031 -0.785156 6.8125 -0.84375 7 -0.9375 L 7.078125 -0.96875 L 7.15625 -1.03125 C 7.195312 -1.070312 7.210938 -1.125 7.203125 -1.1875 C 7.191406 -1.25 7.15625 -1.296875 7.09375 -1.328125 C 7.039062 -1.359375 6.988281 -1.367188 6.9375 -1.359375 C 6.726562 -1.328125 6.492188 -1.316406 6.234375 -1.328125 L 5.546875 -1.40625 C 4.953125 -1.46875 4.488281 -1.441406 4.15625 -1.328125 C 3.882812 -1.242188 3.804688 -1.34375 3.921875 -1.625 C 4.117188 -2.082031 4.195312 -2.566406 4.15625 -3.078125 L 4.109375 -3.9375 L 4.0625 -4.78125 L 4 -5.84375 C 3.96875 -6.257812 3.890625 -6.601562 3.765625 -6.875 C 3.597656 -7.28125 3.472656 -7.753906 3.390625 -8.296875 L 3.296875 -9.015625 L 3.234375 -9.734375 C 3.210938 -9.960938 3.304688 -10.078125 3.515625 -10.078125 C 3.753906 -10.078125 4.097656 -10.097656 4.546875 -10.140625 L 5.0625 -10.1875 L 5.5625 -10.21875 L 6.609375 -10.21875 C 7.015625 -10.21875 7.363281 -10.253906 7.65625 -10.328125 C 7.8125 -10.378906 7.894531 -10.441406 7.90625 -10.515625 C 7.914062 -10.597656 7.894531 -10.65625 7.84375 -10.6875 L 7.765625 -10.734375 Z M 7.671875 -10.765625 "/></g></g></g><g fill="#000000" fill-opacity="1"><g transform="translate(61.117409, 21.093746)"><g><path d="M 1.703125 -11.5625 C 2.648438 -11.65625 3.289062 -11.269531 3.625 -10.40625 C 4.5 -8.132812 5.132812 -6.390625 5.53125 -5.171875 C 5.625 -4.890625 5.78125 -4.535156 6 -4.109375 L 6.265625 -3.609375 L 6.515625 -3.09375 L 6.75 -2.5 L 6.96875 -1.921875 L 7.046875 -1.734375 L 7.125 -1.8125 L 7.1875 -1.921875 L 7.578125 -3.0625 L 8.015625 -4.203125 C 8.367188 -5.140625 8.625 -5.910156 8.78125 -6.515625 C 8.894531 -6.992188 9.144531 -7.625 9.53125 -8.40625 L 9.96875 -9.3125 C 10.132812 -9.664062 10.257812 -9.984375 10.34375 -10.265625 C 10.375 -10.359375 10.421875 -10.429688 10.484375 -10.484375 C 10.554688 -10.546875 10.632812 -10.554688 10.71875 -10.515625 C 10.894531 -10.453125 10.9375 -10.296875 10.84375 -10.046875 C 10.269531 -8.671875 9.695312 -7.0625 9.125 -5.21875 L 8.78125 -4.0625 L 8.4375 -2.890625 C 8.15625 -1.984375 7.890625 -1.222656 7.640625 -0.609375 C 7.441406 -0.117188 7.019531 0.445312 6.375 1.09375 C 6.25 1.21875 6.085938 1.257812 5.890625 1.21875 C 5.742188 1.1875 5.578125 1.109375 5.390625 0.984375 C 5.097656 0.804688 4.847656 0.53125 4.640625 0.15625 L 4.40625 -0.34375 L 4.15625 -0.84375 C 3.15625 -2.78125 2.367188 -4.5 1.796875 -6 C 1.046875 -7.945312 0.488281 -9.441406 0.125 -10.484375 C 0.0703125 -10.617188 0.109375 -10.742188 0.234375 -10.859375 L 0.578125 -11.109375 C 0.953125 -11.410156 1.328125 -11.5625 1.703125 -11.5625 Z M 1.703125 -11.5625 "/></g></g></g><g fill="#000000" fill-opacity="1"><g transform="translate(73.359834, 21.093746)"><g><path d="M 3.625 -7.328125 C 3.6875 -7.492188 3.753906 -7.707031 3.828125 -7.96875 L 3.96875 -8.640625 C 4.101562 -9.171875 4.28125 -9.585938 4.5 -9.890625 L 4.53125 -9.9375 L 4.546875 -9.984375 C 4.597656 -10.484375 4.800781 -10.753906 5.15625 -10.796875 C 5.375 -10.828125 5.613281 -10.738281 5.875 -10.53125 C 6.144531 -10.332031 6.3125 -10.125 6.375 -9.90625 L 6.5 -9.46875 C 6.53125 -9.289062 6.539062 -9.125 6.53125 -8.96875 C 6.34375 -8.34375 5.925781 -7.859375 5.28125 -7.515625 C 5.082031 -7.398438 4.851562 -7.316406 4.59375 -7.265625 L 4.21875 -7.1875 L 3.84375 -7.125 C 3.75 -7.113281 3.6875 -7.117188 3.65625 -7.140625 C 3.59375 -7.160156 3.582031 -7.222656 3.625 -7.328125 Z M 9.546875 -5.3125 C 9.441406 -5.382812 9.347656 -5.390625 9.265625 -5.328125 L 9.078125 -5.109375 L 8.65625 -4.640625 L 8.25 -4.171875 C 7.925781 -3.816406 7.613281 -3.550781 7.3125 -3.375 L 6.96875 -3.171875 L 6.609375 -2.96875 C 6.328125 -2.84375 6.070312 -2.8125 5.84375 -2.875 C 5.226562 -3.0625 4.6875 -3.460938 4.21875 -4.078125 C 3.757812 -4.679688 3.515625 -5.3125 3.484375 -5.96875 C 3.460938 -6.394531 3.625 -6.613281 3.96875 -6.625 C 5.21875 -6.664062 6.300781 -7.097656 7.21875 -7.921875 C 7.570312 -8.234375 7.796875 -8.625 7.890625 -9.09375 C 7.984375 -9.539062 7.921875 -9.914062 7.703125 -10.21875 C 6.992188 -11.15625 6.144531 -11.648438 5.15625 -11.703125 L 5.015625 -11.71875 L 4.9375 -11.75 L 4.765625 -11.765625 L 4.359375 -11.796875 L 3.953125 -11.796875 C 3.640625 -11.785156 3.382812 -11.6875 3.1875 -11.5 C 2.800781 -11.125 2.40625 -10.632812 2 -10.03125 C 0.664062 -8.050781 0.101562 -6.289062 0.3125 -4.75 C 0.570312 -2.851562 1.269531 -1.5 2.40625 -0.6875 C 3.082031 -0.1875 3.828125 0.0351562 4.640625 -0.015625 C 5.441406 -0.046875 6.097656 -0.328125 6.609375 -0.859375 C 7.796875 -2.128906 8.742188 -3.460938 9.453125 -4.859375 L 9.53125 -4.953125 L 9.625 -5.0625 C 9.675781 -5.144531 9.648438 -5.226562 9.546875 -5.3125 Z M 9.546875 -5.3125 "/></g></g></g><g fill="#000000" fill-opacity="1"><g transform="translate(84.745793, 21.093746)"><g><path d="M 0.15625 -9.15625 C 0.132812 -9.488281 0.101562 -9.769531 0.0625 -10 C 0.0195312 -10.21875 0.0859375 -10.375 0.265625 -10.46875 C 0.328125 -10.507812 0.40625 -10.539062 0.5 -10.5625 L 0.625 -10.578125 L 0.734375 -10.59375 L 0.9375 -10.625 L 1.140625 -10.671875 C 1.304688 -10.691406 1.445312 -10.703125 1.5625 -10.703125 C 1.882812 -10.691406 2.132812 -10.554688 2.3125 -10.296875 C 2.351562 -10.234375 2.398438 -10.222656 2.453125 -10.265625 L 2.515625 -10.34375 L 2.5625 -10.40625 C 3.226562 -11.050781 3.941406 -11.363281 4.703125 -11.34375 C 5.097656 -11.320312 5.457031 -11.140625 5.78125 -10.796875 C 6.820312 -9.679688 7.226562 -8.40625 7 -6.96875 C 6.988281 -6.875 6.945312 -6.8125 6.875 -6.78125 C 6.757812 -6.738281 6.582031 -6.785156 6.34375 -6.921875 C 6.113281 -7.046875 5.960938 -7.164062 5.890625 -7.28125 C 5.703125 -7.582031 5.515625 -8.03125 5.328125 -8.625 L 5.109375 -9.3125 C 5.015625 -9.570312 4.914062 -9.796875 4.8125 -9.984375 C 4.53125 -10.503906 4.097656 -10.722656 3.515625 -10.640625 C 3.335938 -10.617188 3.160156 -10.4375 2.984375 -10.09375 C 2.816406 -9.757812 2.765625 -9.492188 2.828125 -9.296875 C 3.335938 -7.742188 3.601562 -6.15625 3.625 -4.53125 L 3.65625 -3.796875 L 3.671875 -3.0625 C 3.679688 -2.488281 3.660156 -2 3.609375 -1.59375 C 3.554688 -1.207031 3.46875 -0.921875 3.34375 -0.734375 C 3.257812 -0.628906 3.195312 -0.476562 3.15625 -0.28125 L 3.03125 0.1875 C 2.945312 0.457031 2.804688 0.546875 2.609375 0.453125 C 2.515625 0.398438 2.390625 0.363281 2.234375 0.34375 L 1.828125 0.265625 C 1.503906 0.191406 1.253906 0.078125 1.078125 -0.078125 C 0.890625 -0.234375 0.773438 -0.492188 0.734375 -0.859375 C 0.628906 -1.867188 0.523438 -3.113281 0.421875 -4.59375 L 0.3125 -6.4375 L 0.203125 -8.3125 Z M 0.15625 -9.15625 "/></g></g></g><g fill="#000000" fill-opacity="1"><g transform="translate(93.520376, 21.093746)"><g><path d="M 5.328125 -2.875 C 5.367188 -3.101562 5.265625 -3.253906 5.015625 -3.328125 C 2.453125 -4.097656 0.921875 -5.628906 0.421875 -7.921875 C 0.335938 -8.328125 0.257812 -8.820312 0.1875 -9.40625 L 0.109375 -10.140625 L 0.03125 -10.890625 L 0.015625 -11.015625 L 0 -11.15625 C 0.0195312 -11.269531 0.0859375 -11.332031 0.203125 -11.34375 C 0.410156 -11.382812 0.570312 -11.28125 0.6875 -11.03125 C 0.800781 -10.78125 0.925781 -10.484375 1.0625 -10.140625 L 1.390625 -9.234375 C 1.671875 -8.472656 1.925781 -7.878906 2.15625 -7.453125 L 2.4375 -6.90625 L 2.734375 -6.34375 C 2.960938 -5.925781 3.203125 -5.601562 3.453125 -5.375 L 3.75 -5.09375 L 4.09375 -4.828125 C 4.363281 -4.628906 4.628906 -4.503906 4.890625 -4.453125 C 5.347656 -4.367188 5.613281 -4.546875 5.6875 -4.984375 L 6.171875 -7.828125 C 6.347656 -8.953125 6.472656 -9.8125 6.546875 -10.40625 C 6.609375 -10.8125 6.804688 -11.015625 7.140625 -11.015625 L 7.421875 -11.03125 L 7.71875 -11.0625 C 7.925781 -11.0625 8.113281 -10.984375 8.28125 -10.828125 C 8.5 -10.597656 8.613281 -10.296875 8.625 -9.921875 C 8.625 -9.523438 8.707031 -9.015625 8.875 -8.390625 C 8.882812 -8.328125 8.890625 -8.242188 8.890625 -8.140625 L 8.890625 -7.90625 C 9.097656 -7.0625 9.175781 -6.097656 9.125 -5.015625 C 9.101562 -4.609375 9.0625 -4.132812 9 -3.59375 L 8.828125 -2.15625 L 8.578125 -0.296875 L 8.359375 1.578125 C 8.160156 3.003906 7.957031 4.234375 7.75 5.265625 C 7.5625 6.160156 6.925781 7.078125 5.84375 8.015625 C 5.488281 8.304688 5.160156 8.226562 4.859375 7.78125 C 4.660156 7.507812 4.535156 7.179688 4.484375 6.796875 L 4.4375 6.28125 L 4.4375 5.765625 C 4.425781 3.796875 4.609375 1.585938 4.984375 -0.859375 Z M 5.328125 -2.875 "/></g></g></g><g fill="#000000" fill-opacity="1"><g transform="translate(104.553673, 21.093746)"><g><path d="M 8.46875 -2.484375 C 8.363281 -1.359375 8.171875 -0.34375 7.890625 0.5625 L 7.859375 0.640625 L 7.828125 0.734375 C 7.804688 0.796875 7.828125 0.84375 7.890625 0.875 C 7.929688 0.894531 7.972656 0.878906 8.015625 0.828125 L 8.0625 0.75 L 8.109375 0.6875 L 8.171875 0.625 L 8.25 0.578125 L 8.25 0.765625 C 8.007812 1.335938 7.632812 1.789062 7.125 2.125 C 6.5625 2.476562 5.988281 2.585938 5.40625 2.453125 C 3.039062 1.890625 1.75 0.296875 1.53125 -2.328125 C 1.34375 -4.722656 1.296875 -7.035156 1.390625 -9.265625 C 1.398438 -9.472656 1.269531 -9.566406 1 -9.546875 L -0.125 -9.453125 C -0.5625 -9.410156 -0.9375 -9.398438 -1.25 -9.421875 L -1.375 -9.421875 L -1.515625 -9.4375 C -1.609375 -9.457031 -1.660156 -9.507812 -1.671875 -9.59375 C -1.679688 -9.65625 -1.640625 -9.707031 -1.546875 -9.75 L -1.421875 -9.796875 L -1.296875 -9.828125 C -0.378906 -10.046875 0.398438 -10.175781 1.046875 -10.21875 C 1.347656 -10.238281 1.503906 -10.398438 1.515625 -10.703125 C 1.609375 -12.265625 1.738281 -13.617188 1.90625 -14.765625 L 1.921875 -15 L 1.9375 -15.25 C 1.96875 -15.4375 2.054688 -15.523438 2.203125 -15.515625 L 2.609375 -15.53125 C 2.773438 -15.53125 2.910156 -15.519531 3.015625 -15.5 C 3.328125 -15.457031 3.554688 -15.304688 3.703125 -15.046875 C 3.921875 -14.703125 4.078125 -14.269531 4.171875 -13.75 L 4.28125 -13.078125 L 4.359375 -12.375 C 4.441406 -11.738281 4.507812 -11.125 4.5625 -10.53125 C 4.582031 -10.34375 4.707031 -10.25 4.9375 -10.25 L 6.265625 -10.25 C 6.765625 -10.238281 7.203125 -10.191406 7.578125 -10.109375 L 7.765625 -10.078125 C 7.835938 -10.066406 7.890625 -10.03125 7.921875 -9.96875 L 7.734375 -9.890625 L 7.5625 -9.84375 L 5.078125 -9.578125 C 4.816406 -9.554688 4.6875 -9.429688 4.6875 -9.203125 L 4.65625 -5.1875 L 4.65625 -1.1875 C 4.65625 -0.894531 4.6875 -0.539062 4.75 -0.125 L 4.828125 0.421875 L 4.890625 0.96875 L 4.921875 1.078125 L 4.96875 1.1875 C 5.15625 1.757812 5.441406 1.832031 5.828125 1.40625 C 7.035156 0.09375 7.796875 -1.390625 8.109375 -3.046875 L 8.109375 -3.15625 L 8.125 -3.28125 C 8.15625 -3.363281 8.207031 -3.40625 8.28125 -3.40625 C 8.375 -3.394531 8.414062 -3.347656 8.40625 -3.265625 L 8.390625 -3.15625 L 8.390625 -3.046875 L 8.4375 -2.75 Z M 8.46875 -2.484375 "/></g></g></g><g fill="#000000" fill-opacity="1"><g transform="translate(114.705319, 21.093746)"><g><path d="M 5.59375 -5.703125 C 5.582031 -6.148438 5.585938 -6.53125 5.609375 -6.84375 C 5.648438 -7.863281 5.453125 -8.957031 5.015625 -10.125 C 4.878906 -10.5 4.640625 -10.597656 4.296875 -10.421875 C 3.878906 -10.191406 3.488281 -9.875 3.125 -9.46875 C 2.988281 -9.320312 2.914062 -9.140625 2.90625 -8.921875 L 2.90625 -8.625 L 2.9375 -8.328125 C 3.039062 -6.554688 3.082031 -5.023438 3.0625 -3.734375 C 3.050781 -3.378906 3.054688 -2.972656 3.078125 -2.515625 L 3.15625 -1.296875 L 3.171875 -0.96875 L 3.171875 -0.65625 C 3.160156 -0.414062 3.113281 -0.234375 3.03125 -0.109375 L 2.890625 0.140625 L 2.765625 0.40625 C 2.671875 0.613281 2.554688 0.765625 2.421875 0.859375 C 2.128906 1.085938 1.765625 1.066406 1.328125 0.796875 C 1.265625 0.742188 1.171875 0.6875 1.046875 0.625 L 0.734375 0.484375 C 0.367188 0.285156 0.222656 -0.0078125 0.296875 -0.40625 C 0.316406 -0.519531 0.320312 -0.640625 0.3125 -0.765625 L 0.25 -1.109375 C 0.195312 -1.378906 0.160156 -1.722656 0.140625 -2.140625 L 0.109375 -3.171875 C 0.0351562 -4.347656 0.0078125 -5.734375 0.03125 -7.328125 L 0.078125 -9.40625 L 0.140625 -11.46875 L 0.15625 -12.453125 L 0.140625 -13.453125 C 0.117188 -14.265625 0.128906 -14.914062 0.171875 -15.40625 C 0.179688 -15.632812 0.316406 -15.835938 0.578125 -16.015625 C 0.835938 -16.191406 1.097656 -16.253906 1.359375 -16.203125 C 1.742188 -16.117188 1.992188 -16.007812 2.109375 -15.875 C 2.210938 -15.769531 2.316406 -15.507812 2.421875 -15.09375 C 2.597656 -14.457031 2.710938 -13.664062 2.765625 -12.71875 L 2.8125 -11.515625 C 2.832031 -11.035156 2.851562 -10.640625 2.875 -10.328125 L 2.875 -10.25 L 2.890625 -10.1875 C 2.898438 -10.125 2.914062 -10.085938 2.9375 -10.078125 C 2.96875 -10.054688 3.007812 -10.0625 3.0625 -10.09375 L 3.109375 -10.140625 L 3.15625 -10.203125 C 3.957031 -10.867188 4.816406 -10.960938 5.734375 -10.484375 C 5.835938 -10.429688 5.910156 -10.359375 5.953125 -10.265625 C 6.210938 -9.679688 6.453125 -9.117188 6.671875 -8.578125 C 7.234375 -7.203125 7.410156 -5.242188 7.203125 -2.703125 L 7.1875 -2.328125 L 7.15625 -1.96875 C 7.113281 -1.6875 7.019531 -1.453125 6.875 -1.265625 C 6.78125 -1.140625 6.648438 -1.0625 6.484375 -1.03125 L 6.28125 -0.984375 L 6.078125 -0.953125 C 5.992188 -0.929688 5.921875 -0.984375 5.859375 -1.109375 L 5.78125 -1.28125 L 5.75 -1.46875 C 5.6875 -1.820312 5.648438 -2.265625 5.640625 -2.796875 L 5.609375 -4.140625 L 5.609375 -4.5625 Z M 5.59375 -5.703125 "/></g></g></g><g fill="#000000" fill-opacity="1"><g transform="translate(123.899738, 21.093746)"><g><path d="M 0 -4.75 C 0.0390625 -5.070312 0.0664062 -5.445312 0.078125 -5.875 L 0.09375 -6.46875 L 0.09375 -7.078125 C 0.101562 -8.128906 0.160156 -8.953125 0.265625 -9.546875 L 0.28125 -9.703125 L 0.28125 -9.875 C 0.300781 -10.125 0.425781 -10.222656 0.65625 -10.171875 C 0.726562 -10.148438 0.820312 -10.132812 0.9375 -10.125 L 1.21875 -10.09375 C 1.445312 -10.070312 1.617188 -9.988281 1.734375 -9.84375 C 1.929688 -9.625 2.039062 -9.414062 2.0625 -9.21875 L 2.3125 -7.6875 C 2.382812 -7.113281 2.421875 -6.59375 2.421875 -6.125 C 2.410156 -4.78125 2.523438 -3.675781 2.765625 -2.8125 C 2.816406 -2.632812 2.851562 -2.414062 2.875 -2.15625 L 2.890625 -1.84375 L 2.921875 -1.515625 C 2.972656 -1.140625 2.773438 -0.816406 2.328125 -0.546875 C 2.203125 -0.460938 2.003906 -0.457031 1.734375 -0.53125 C 1.460938 -0.601562 1.242188 -0.722656 1.078125 -0.890625 C 0.835938 -1.117188 0.601562 -1.539062 0.375 -2.15625 C 0.1875 -2.644531 0.0625 -3.507812 0 -4.75 Z M 1.3125 -11.328125 C 1.050781 -11.328125 0.816406 -11.445312 0.609375 -11.6875 C 0.410156 -11.914062 0.332031 -12.160156 0.375 -12.421875 C 0.40625 -12.742188 0.554688 -12.90625 0.828125 -12.90625 L 1.046875 -12.90625 C 1.128906 -12.90625 1.203125 -12.894531 1.265625 -12.875 C 1.421875 -12.820312 1.523438 -12.71875 1.578125 -12.5625 L 1.71875 -12.15625 L 1.84375 -11.765625 C 1.863281 -11.671875 1.8125 -11.570312 1.6875 -11.46875 C 1.5625 -11.375 1.4375 -11.328125 1.3125 -11.328125 Z M 1.3125 -11.328125 "/></g></g></g><g fill="#000000" fill-opacity="1"><g transform="translate(128.57672, 21.093746)"><g><path d="M 9.046875 -3.96875 C 9.003906 -3.46875 8.988281 -3.015625 9 -2.609375 C 9 -2.046875 9.039062 -1.53125 9.125 -1.0625 C 9.226562 -0.445312 8.945312 0.164062 8.28125 0.78125 C 8.070312 0.976562 7.828125 1.046875 7.546875 0.984375 C 7.429688 0.953125 7.359375 0.878906 7.328125 0.765625 L 7.296875 0.625 L 7.28125 0.46875 C 7.207031 0.101562 7.179688 -0.328125 7.203125 -0.828125 L 7.296875 -2.109375 C 7.335938 -2.691406 7.328125 -3.460938 7.265625 -4.421875 L 7.203125 -5.5625 L 7.171875 -6.734375 L 7.171875 -8.578125 C 7.171875 -9.285156 7.132812 -9.898438 7.0625 -10.421875 L 7 -10.71875 C 6.851562 -11.382812 6.410156 -11.597656 5.671875 -11.359375 L 5.625 -11.328125 L 5.546875 -11.296875 C 5.503906 -11.265625 5.457031 -11.265625 5.40625 -11.296875 L 5.515625 -11.390625 L 5.640625 -11.46875 L 5.84375 -11.53125 L 6.046875 -11.578125 C 5.910156 -11.617188 5.734375 -11.601562 5.515625 -11.53125 C 4.984375 -11.34375 4.539062 -10.96875 4.1875 -10.40625 C 4.09375 -10.257812 4.078125 -10.078125 4.140625 -9.859375 L 4.234375 -9.59375 L 4.3125 -9.328125 C 4.757812 -7.398438 4.734375 -5.34375 4.234375 -3.15625 C 4.179688 -2.90625 4.160156 -2.703125 4.171875 -2.546875 C 4.203125 -1.910156 3.84375 -1.203125 3.09375 -0.421875 C 2.832031 -0.148438 2.597656 0.046875 2.390625 0.171875 C 2.160156 0.304688 1.941406 0.3125 1.734375 0.1875 L 1.21875 -0.109375 L 0.703125 -0.390625 C 0.441406 -0.523438 0.28125 -0.742188 0.21875 -1.046875 C 0.195312 -1.140625 0.179688 -1.269531 0.171875 -1.4375 L 0.15625 -1.828125 C 0.0390625 -3.035156 0.0351562 -4.601562 0.140625 -6.53125 L 0.28125 -8.875 C 0.332031 -9.789062 0.359375 -10.578125 0.359375 -11.234375 C 0.359375 -11.796875 0.457031 -12.140625 0.65625 -12.265625 C 0.84375 -12.378906 1.28125 -12.414062 1.96875 -12.375 C 2.382812 -12.351562 2.71875 -12.226562 2.96875 -12 C 3.070312 -11.914062 3.175781 -11.804688 3.28125 -11.671875 L 3.53125 -11.28125 C 3.675781 -11.0625 3.804688 -10.953125 3.921875 -10.953125 C 4.023438 -10.953125 4.160156 -11.046875 4.328125 -11.234375 C 4.734375 -11.703125 5.347656 -11.9375 6.171875 -11.9375 C 6.867188 -11.9375 7.382812 -11.785156 7.71875 -11.484375 C 7.976562 -11.234375 8.195312 -10.78125 8.375 -10.125 C 8.738281 -8.707031 8.960938 -6.65625 9.046875 -3.96875 Z M 9.046875 -3.96875 "/></g></g></g><g fill="#000000" fill-opacity="1"><g transform="translate(139.526049, 21.093746)"><g><path d="M 1.4375 -6.171875 C 1.363281 -5.148438 1.785156 -4.332031 2.703125 -3.71875 C 3.046875 -3.488281 3.3125 -3.523438 3.5 -3.828125 C 4.164062 -4.910156 4.492188 -5.929688 4.484375 -6.890625 C 4.472656 -7.441406 4.398438 -7.8125 4.265625 -8 C 4.117188 -8.195312 3.804688 -8.347656 3.328125 -8.453125 C 2.929688 -8.535156 2.539062 -8.4375 2.15625 -8.15625 C 1.769531 -7.875 1.550781 -7.53125 1.5 -7.125 L 1.46875 -6.65625 Z M 7.671875 -2.140625 C 7.710938 -1.441406 7.660156 -0.675781 7.515625 0.15625 C 7.460938 0.476562 7.390625 0.847656 7.296875 1.265625 L 7.015625 2.375 C 6.859375 3.0625 6.578125 3.679688 6.171875 4.234375 C 5.890625 4.648438 5.441406 4.9375 4.828125 5.09375 C 4.210938 5.257812 3.609375 5.257812 3.015625 5.09375 C 2.109375 4.832031 1.453125 4.226562 1.046875 3.28125 C 0.710938 2.507812 0.472656 1.703125 0.328125 0.859375 L 0.296875 0.703125 C 0.296875 0.640625 0.320312 0.597656 0.375 0.578125 C 0.382812 0.554688 0.421875 0.5625 0.484375 0.59375 L 0.546875 0.625 L 0.609375 0.671875 C 0.804688 0.753906 0.929688 0.9375 0.984375 1.21875 C 1.054688 1.5625 1.191406 1.929688 1.390625 2.328125 L 1.65625 2.859375 L 1.9375 3.375 L 2.0625 3.578125 C 2.382812 4.046875 2.753906 4.25 3.171875 4.1875 C 3.347656 4.164062 3.492188 4.066406 3.609375 3.890625 C 3.640625 3.816406 3.675781 3.726562 3.71875 3.625 L 3.828125 3.359375 C 3.929688 3.066406 3.988281 2.695312 4 2.25 L 4.015625 1.6875 L 4.046875 1.125 L 4.171875 -0.125 L 4.296875 -1.359375 C 4.316406 -1.554688 4.21875 -1.695312 4 -1.78125 C 2.457031 -2.320312 1.335938 -3.1875 0.640625 -4.375 C 0.210938 -5.101562 0.0976562 -6.003906 0.296875 -7.078125 C 0.492188 -8.222656 0.992188 -9.046875 1.796875 -9.546875 C 1.984375 -9.660156 2.179688 -9.710938 2.390625 -9.703125 L 3.421875 -9.65625 C 3.828125 -9.632812 4.171875 -9.609375 4.453125 -9.578125 C 5.054688 -9.492188 5.65625 -9.082031 6.25 -8.34375 C 6.863281 -7.570312 7.269531 -6.273438 7.46875 -4.453125 L 7.5625 -3.875 L 7.640625 -3.28125 C 7.703125 -2.832031 7.710938 -2.453125 7.671875 -2.140625 Z M 7.671875 -2.140625 "/></g></g></g><g fill="#000000" fill-opacity="1"><g transform="translate(82.701159, 44.777954)"><g><path d="M 7.671875 -10.765625 C 6.160156 -11.148438 4.757812 -11.222656 3.46875 -10.984375 C 3.101562 -10.921875 2.863281 -11.0625 2.75 -11.40625 L 2.65625 -11.765625 L 2.40625 -13.171875 C 2.300781 -13.722656 2.164062 -14.179688 2 -14.546875 C 1.914062 -14.742188 2 -14.847656 2.25 -14.859375 L 2.71875 -14.875 L 3.203125 -14.890625 C 3.566406 -14.910156 3.878906 -14.960938 4.140625 -15.046875 L 4.25 -15.0625 L 4.359375 -15.109375 C 4.441406 -15.140625 4.472656 -15.195312 4.453125 -15.28125 C 4.441406 -15.363281 4.394531 -15.421875 4.3125 -15.453125 L 4.203125 -15.46875 L 4.09375 -15.46875 L 0.71875 -15.59375 C 0.5625 -15.59375 0.40625 -15.503906 0.25 -15.328125 C 0.0820312 -15.148438 0 -14.984375 0 -14.828125 L 0.03125 -13.625 L 0.046875 -12.421875 C 0.0664062 -11.472656 0.0625 -10.671875 0.03125 -10.015625 C 0.0078125 -9.398438 0.0195312 -8.679688 0.0625 -7.859375 L 0.125 -6.78125 L 0.1875 -5.71875 C 0.300781 -3.914062 0.289062 -2.476562 0.15625 -1.40625 C 0.0820312 -0.96875 0.257812 -0.597656 0.6875 -0.296875 C 1.101562 0.00390625 1.515625 0.078125 1.921875 -0.078125 C 2.753906 -0.421875 3.984375 -0.640625 5.609375 -0.734375 L 5.953125 -0.75 L 6.3125 -0.765625 C 6.582031 -0.785156 6.8125 -0.84375 7 -0.9375 L 7.078125 -0.96875 L 7.15625 -1.03125 C 7.195312 -1.070312 7.210938 -1.125 7.203125 -1.1875 C 7.191406 -1.25 7.15625 -1.296875 7.09375 -1.328125 C 7.039062 -1.359375 6.988281 -1.367188 6.9375 -1.359375 C 6.726562 -1.328125 6.492188 -1.316406 6.234375 -1.328125 L 5.546875 -1.40625 C 4.953125 -1.46875 4.488281 -1.441406 4.15625 -1.328125 C 3.882812 -1.242188 3.804688 -1.34375 3.921875 -1.625 C 4.117188 -2.082031 4.195312 -2.566406 4.15625 -3.078125 L 4.109375 -3.9375 L 4.0625 -4.78125 L 4 -5.84375 C 3.96875 -6.257812 3.890625 -6.601562 3.765625 -6.875 C 3.597656 -7.28125 3.472656 -7.753906 3.390625 -8.296875 L 3.296875 -9.015625 L 3.234375 -9.734375 C 3.210938 -9.960938 3.304688 -10.078125 3.515625 -10.078125 C 3.753906 -10.078125 4.097656 -10.097656 4.546875 -10.140625 L 5.0625 -10.1875 L 5.5625 -10.21875 L 6.609375 -10.21875 C 7.015625 -10.21875 7.363281 -10.253906 7.65625 -10.328125 C 7.8125 -10.378906 7.894531 -10.441406 7.90625 -10.515625 C 7.914062 -10.597656 7.894531 -10.65625 7.84375 -10.6875 L 7.765625 -10.734375 Z M 7.671875 -10.765625 "/></g></g></g><g fill="#000000" fill-opacity="1"><g transform="translate(92.307013, 44.777954)"><g><path d="M 0.109375 -9.8125 C 0.0351562 -10.332031 0.015625 -11.023438 0.046875 -11.890625 L 0.09375 -12.953125 C 0.113281 -13.359375 0.117188 -13.710938 0.109375 -14.015625 C 0.0976562 -14.179688 0.175781 -14.300781 0.34375 -14.375 C 0.46875 -14.425781 0.601562 -14.4375 0.75 -14.40625 C 1.28125 -14.28125 1.6875 -14.046875 1.96875 -13.703125 C 2.351562 -13.242188 2.644531 -12.65625 2.84375 -11.9375 C 2.90625 -11.6875 2.972656 -11.367188 3.046875 -10.984375 L 3.125 -10.5 L 3.21875 -10.015625 C 3.289062 -9.628906 3.351562 -9.175781 3.40625 -8.65625 L 3.515625 -7.296875 C 3.535156 -6.816406 3.515625 -6.140625 3.453125 -5.265625 L 3.390625 -4.234375 C 3.378906 -3.859375 3.378906 -3.519531 3.390625 -3.21875 C 3.429688 -2.226562 3.398438 -1.117188 3.296875 0.109375 C 3.265625 0.441406 3.101562 0.753906 2.8125 1.046875 C 2.507812 1.328125 2.191406 1.46875 1.859375 1.46875 C 1.773438 1.46875 1.703125 1.421875 1.640625 1.328125 C 1.390625 0.953125 1.238281 0.609375 1.1875 0.296875 L 1.015625 -0.765625 L 0.8125 -1.859375 C 0.664062 -2.710938 0.5625 -3.429688 0.5 -4.015625 C 0.257812 -6.203125 0.128906 -8.132812 0.109375 -9.8125 Z M 0.109375 -9.8125 "/></g></g></g><g fill="#000000" fill-opacity="1"><g transform="translate(97.538178, 44.777954)"><g><path d="M 2.5625 -8.5625 C 2.550781 -8.164062 2.585938 -7.898438 2.671875 -7.765625 C 2.753906 -7.628906 2.960938 -7.5 3.296875 -7.375 L 3.953125 -7.125 C 4.191406 -7.039062 4.398438 -6.957031 4.578125 -6.875 C 5.046875 -6.644531 5.414062 -6.378906 5.6875 -6.078125 C 6.175781 -5.535156 6.492188 -4.953125 6.640625 -4.328125 C 6.816406 -3.609375 6.722656 -2.941406 6.359375 -2.328125 L 6.078125 -1.84375 C 5.960938 -1.644531 5.851562 -1.484375 5.75 -1.359375 C 5.476562 -1.003906 5.175781 -0.753906 4.84375 -0.609375 C 4.625 -0.515625 4.453125 -0.472656 4.328125 -0.484375 C 2.828125 -0.628906 1.78125 -1.097656 1.1875 -1.890625 L 0.859375 -2.296875 L 0.546875 -2.703125 C 0.304688 -3.023438 0.148438 -3.332031 0.078125 -3.625 L 0.046875 -3.703125 L 0.015625 -3.8125 C 0.00390625 -3.882812 0.0234375 -3.929688 0.078125 -3.953125 C 0.117188 -3.972656 0.160156 -3.953125 0.203125 -3.890625 L 0.296875 -3.734375 C 0.421875 -3.492188 0.628906 -3.28125 0.921875 -3.09375 L 1.3125 -2.859375 L 1.71875 -2.640625 C 1.894531 -2.523438 2.0625 -2.53125 2.21875 -2.65625 L 2.625 -2.96875 C 2.769531 -3.09375 2.894531 -3.207031 3 -3.3125 C 3.257812 -3.582031 3.429688 -3.878906 3.515625 -4.203125 C 3.648438 -4.691406 3.488281 -5.066406 3.03125 -5.328125 L 2.734375 -5.5 L 2.4375 -5.65625 C 2.21875 -5.78125 2.035156 -5.898438 1.890625 -6.015625 C 0.785156 -6.929688 0.222656 -7.875 0.203125 -8.84375 C 0.191406 -9.238281 0.316406 -9.625 0.578125 -10 C 0.847656 -10.394531 1.175781 -10.625 1.5625 -10.6875 L 1.875 -10.765625 L 2.1875 -10.875 C 2.445312 -10.945312 2.664062 -10.976562 2.84375 -10.96875 C 3.519531 -10.90625 4.054688 -10.65625 4.453125 -10.21875 C 4.859375 -9.78125 5.050781 -9.207031 5.03125 -8.5 C 5.03125 -8.425781 5.019531 -8.367188 5 -8.328125 C 4.976562 -8.273438 4.9375 -8.242188 4.875 -8.234375 C 4.820312 -8.222656 4.773438 -8.238281 4.734375 -8.28125 L 4.6875 -8.34375 L 4.65625 -8.40625 L 4.375 -8.984375 C 4.257812 -9.210938 4.160156 -9.394531 4.078125 -9.53125 C 3.847656 -9.925781 3.640625 -10.125 3.453125 -10.125 C 3.265625 -10.113281 3.0625 -9.914062 2.84375 -9.53125 L 2.71875 -9.296875 L 2.609375 -9.0625 C 2.535156 -8.875 2.519531 -8.707031 2.5625 -8.5625 Z M 2.5625 -8.5625 "/></g></g></g><g fill="#000000" fill-opacity="1"><g transform="translate(106.337946, 44.777954)"><g><path d="M 3.625 -7.328125 C 3.6875 -7.492188 3.753906 -7.707031 3.828125 -7.96875 L 3.96875 -8.640625 C 4.101562 -9.171875 4.28125 -9.585938 4.5 -9.890625 L 4.53125 -9.9375 L 4.546875 -9.984375 C 4.597656 -10.484375 4.800781 -10.753906 5.15625 -10.796875 C 5.375 -10.828125 5.613281 -10.738281 5.875 -10.53125 C 6.144531 -10.332031 6.3125 -10.125 6.375 -9.90625 L 6.5 -9.46875 C 6.53125 -9.289062 6.539062 -9.125 6.53125 -8.96875 C 6.34375 -8.34375 5.925781 -7.859375 5.28125 -7.515625 C 5.082031 -7.398438 4.851562 -7.316406 4.59375 -7.265625 L 4.21875 -7.1875 L 3.84375 -7.125 C 3.75 -7.113281 3.6875 -7.117188 3.65625 -7.140625 C 3.59375 -7.160156 3.582031 -7.222656 3.625 -7.328125 Z M 9.546875 -5.3125 C 9.441406 -5.382812 9.347656 -5.390625 9.265625 -5.328125 L 9.078125 -5.109375 L 8.65625 -4.640625 L 8.25 -4.171875 C 7.925781 -3.816406 7.613281 -3.550781 7.3125 -3.375 L 6.96875 -3.171875 L 6.609375 -2.96875 C 6.328125 -2.84375 6.070312 -2.8125 5.84375 -2.875 C 5.226562 -3.0625 4.6875 -3.460938 4.21875 -4.078125 C 3.757812 -4.679688 3.515625 -5.3125 3.484375 -5.96875 C 3.460938 -6.394531 3.625 -6.613281 3.96875 -6.625 C 5.21875 -6.664062 6.300781 -7.097656 7.21875 -7.921875 C 7.570312 -8.234375 7.796875 -8.625 7.890625 -9.09375 C 7.984375 -9.539062 7.921875 -9.914062 7.703125 -10.21875 C 6.992188 -11.15625 6.144531 -11.648438 5.15625 -11.703125 L 5.015625 -11.71875 L 4.9375 -11.75 L 4.765625 -11.765625 L 4.359375 -11.796875 L 3.953125 -11.796875 C 3.640625 -11.785156 3.382812 -11.6875 3.1875 -11.5 C 2.800781 -11.125 2.40625 -10.632812 2 -10.03125 C 0.664062 -8.050781 0.101562 -6.289062 0.3125 -4.75 C 0.570312 -2.851562 1.269531 -1.5 2.40625 -0.6875 C 3.082031 -0.1875 3.828125 0.0351562 4.640625 -0.015625 C 5.441406 -0.046875 6.097656 -0.328125 6.609375 -0.859375 C 7.796875 -2.128906 8.742188 -3.460938 9.453125 -4.859375 L 9.53125 -4.953125 L 9.625 -5.0625 C 9.675781 -5.144531 9.648438 -5.226562 9.546875 -5.3125 Z M 9.546875 -5.3125 "/></g></g></g><g clip-path="url(#bcce0cc961)"><g clip-path="url(#5bc08f7d77)"><g clip-path="url(#af978a2c06)"><g transform="matrix(1, 0, 0, 1, 4, 3)"><g clip-path="url(#8525fd599a)"><g clip-path="url(#e1e563a299)"><g clip-path="url(#5619b25183)"><g clip-path="url(#872dd3b3bb)"><path fill="#fdf9f7" d="M 5.628906 -3.589844 L 51.089844 6.460938 L 41.039062 51.917969 L -4.421875 41.867188 Z M 5.628906 -3.589844 " fill-opacity="1" fill-rule="nonzero"/></g></g></g></g></g></g></g></g><g clip-path="url(#0fbb85bb56)"><g clip-path="url(#45d6e4fd04)"><g clip-path="url(#722dd230d3)"><path fill="#0b0019" d="M 49.066406 25.46875 C 49.257812 29.195312 48.460938 32.722656 46.898438 36.089844 C 46.0625 37.890625 44.980469 39.546875 43.707031 41.082031 C 41.734375 43.453125 39.394531 45.359375 36.671875 46.796875 C 34.699219 47.835938 32.617188 48.574219 30.425781 48.953125 C 29.207031 49.164062 27.96875 49.371094 26.722656 49.304688 C 25.882812 49.257812 25.039062 49.246094 24.195312 49.167969 C 21.84375 48.960938 19.640625 48.289062 17.519531 47.304688 C 15.941406 46.574219 14.507812 45.617188 13.164062 44.519531 C 12.273438 43.796875 11.480469 42.980469 10.734375 42.117188 C 10.527344 41.875 10.503906 41.585938 10.691406 41.4375 C 10.933594 41.246094 11.164062 41.304688 11.363281 41.519531 C 11.773438 41.957031 12.171875 42.398438 12.605469 42.820312 C 15.015625 45.167969 17.84375 46.792969 21.085938 47.695312 C 22.351562 48.046875 23.636719 48.277344 24.953125 48.359375 C 25.640625 48.402344 26.332031 48.453125 27.019531 48.453125 C 27.75 48.453125 28.484375 48.347656 29.214844 48.253906 C 30.632812 48.066406 32.023438 47.746094 33.371094 47.265625 C 35.65625 46.457031 37.761719 45.3125 39.667969 43.796875 C 40.773438 42.917969 41.808594 41.972656 42.726562 40.902344 C 44.417969 38.941406 45.742188 36.753906 46.6875 34.339844 C 47.253906 32.898438 47.664062 31.414062 47.921875 29.886719 C 48.023438 29.269531 48.074219 28.648438 48.148438 28.027344 C 48.332031 26.464844 48.292969 24.898438 48.058594 23.359375 C 47.734375 21.207031 47.132812 19.121094 46.171875 17.148438 C 45.417969 15.605469 44.507812 14.171875 43.398438 12.863281 C 42.09375 11.328125 40.59375 10.015625 38.882812 8.9375 C 36.660156 7.535156 34.265625 6.609375 31.679688 6.15625 C 29.964844 5.851562 28.234375 5.730469 26.503906 5.894531 C 23.363281 6.199219 20.394531 7.105469 17.652344 8.699219 C 15.871094 9.734375 14.265625 10.992188 12.824219 12.472656 C 10.789062 14.554688 9.25 16.949219 8.132812 19.625 C 7.320312 21.570312 6.808594 23.601562 6.59375 25.695312 C 6.492188 26.6875 6.4375 27.691406 6.480469 28.6875 C 6.582031 31.058594 6.996094 33.371094 7.863281 35.589844 C 7.917969 35.730469 7.984375 35.867188 8.015625 36.011719 C 8.0625 36.199219 8.042969 36.414062 7.832031 36.46875 C 7.632812 36.515625 7.382812 36.644531 7.230469 36.339844 C 6.996094 35.859375 6.820312 35.359375 6.660156 34.855469 C 6.269531 33.59375 5.9375 32.316406 5.792969 31 C 5.636719 29.617188 5.527344 28.222656 5.613281 26.839844 C 5.855469 22.738281 7.074219 18.9375 9.296875 15.476562 C 10.214844 14.042969 11.277344 12.71875 12.488281 11.535156 C 14.714844 9.359375 17.253906 7.660156 20.160156 6.515625 C 21.546875 5.96875 22.972656 5.5625 24.433594 5.285156 C 25.964844 4.992188 27.527344 4.914062 29.078125 4.972656 C 31.828125 5.074219 34.476562 5.71875 36.980469 6.882812 C 38.625 7.648438 40.148438 8.613281 41.542969 9.785156 C 44.945312 12.652344 47.183594 16.253906 48.359375 20.527344 C 48.582031 21.335938 48.730469 22.167969 48.882812 22.992188 C 49.03125 23.808594 49.03125 24.640625 49.066406 25.46875 Z M 49.066406 25.46875 " fill-opacity="1" fill-rule="nonzero"/></g></g></g><g clip-path="url(#3395560cc7)"><g clip-path="url(#57148a10fe)"><g clip-path="url(#04a8688943)"><g transform="matrix(1, 0, 0, 1, 6, 6)"><g clip-path="url(#e9f62f11be)"><g clip-path="url(#4d264b9cf7)"><g clip-path="url(#44f4f1f0a8)"><g clip-path="url(#acc73d8dd3)"><path fill="#ffcc00" d="M -1.523438 39.148438 L 3.34375 -1.703125 L 44.195312 3.164062 L 39.328125 44.019531 Z M -1.523438 39.148438 " fill-opacity="1" fill-rule="nonzero"/></g></g></g></g></g></g></g></g></svg>