<svg xmlns="http://www.w3.org/2000/svg" xmlns:xlink="http://www.w3.org/1999/xlink" width="75" zoomAndPan="magnify" viewBox="0 0 56.25 56.249997" height="75" preserveAspectRatio="xMidYMid meet" version="1.0"><defs><clipPath id="1cfa3a0e5b"><path d="M 4 4 L 52 4 L 52 52 L 4 52 Z M 4 4 " clip-rule="nonzero"/></clipPath><clipPath id="5f3be9f83b"><path d="M 10.050781 0 L 55.507812 10.050781 L 45.457031 55.511719 L 0 45.460938 Z M 10.050781 0 " clip-rule="nonzero"/></clipPath><clipPath id="d366240916"><path d="M 32.777344 5.027344 C 20.226562 2.25 7.800781 10.175781 5.023438 22.730469 C 2.25 35.285156 10.175781 47.710938 22.726562 50.484375 C 35.28125 53.261719 47.707031 45.335938 50.484375 32.78125 C 53.257812 20.226562 45.332031 7.800781 32.777344 5.027344 Z M 32.777344 5.027344 " clip-rule="nonzero"/></clipPath><clipPath id="f4cb4a8d66"><path d="M 0 0 L 48 0 L 48 48 L 0 48 Z M 0 0 " clip-rule="nonzero"/></clipPath><clipPath id="3d8759bea0"><path d="M 6.050781 -4 L 51.507812 6.050781 L 41.457031 51.511719 L -4 41.460938 Z M 6.050781 -4 " clip-rule="nonzero"/></clipPath><clipPath id="26dc766704"><path d="M 28.777344 1.027344 C 16.226562 -1.75 3.800781 6.175781 1.023438 18.730469 C -1.75 31.285156 6.175781 43.710938 18.726562 46.484375 C 31.28125 49.261719 43.707031 41.335938 46.484375 28.78125 C 49.257812 16.226562 41.332031 3.800781 28.777344 1.027344 Z M 28.777344 1.027344 " clip-rule="nonzero"/></clipPath><clipPath id="5fc004da75"><rect x="0" width="48" y="0" height="48"/></clipPath><clipPath id="cec2f16b4f"><path d="M 6 5 L 50 5 L 50 50 L 6 50 Z M 6 5 " clip-rule="nonzero"/></clipPath><clipPath id="f4f280cb23"><path d="M 50.375 49.171875 L 6.738281 50.742188 L 5.140625 6.363281 L 48.78125 4.792969 Z M 50.375 49.171875 " clip-rule="nonzero"/></clipPath><clipPath id="074881813e"><path d="M 50.375 49.171875 L 6.738281 50.742188 L 5.140625 6.363281 L 48.78125 4.792969 Z M 50.375 49.171875 " clip-rule="nonzero"/></clipPath><clipPath id="dd1e4c3350"><path d="M 7 7 L 49 7 L 49 49 L 7 49 Z M 7 7 " clip-rule="nonzero"/></clipPath><clipPath id="1c7b54b5a0"><path d="M 4.894531 45.738281 L 9.765625 4.886719 L 50.617188 9.757812 L 45.746094 50.609375 Z M 4.894531 45.738281 " clip-rule="nonzero"/></clipPath><clipPath id="3a845d40d3"><path d="M 7.328125 25.3125 C 5.984375 36.59375 14.039062 46.832031 25.320312 48.175781 C 36.601562 49.519531 46.835938 41.464844 48.179688 30.183594 C 49.527344 18.902344 41.472656 8.667969 30.191406 7.324219 C 18.910156 5.976562 8.675781 14.03125 7.328125 25.3125 Z M 7.328125 25.3125 " clip-rule="nonzero"/></clipPath><clipPath id="6c18c299f2"><path d="M 0 0 L 42 0 L 42 42 L 0 42 Z M 0 0 " clip-rule="nonzero"/></clipPath><clipPath id="7b28f13f46"><path d="M -2.105469 38.738281 L 2.765625 -2.113281 L 43.617188 2.757812 L 38.746094 43.609375 Z M -2.105469 38.738281 " clip-rule="nonzero"/></clipPath><clipPath id="6e66854e5e"><path d="M 0.328125 18.3125 C -1.015625 29.59375 7.039062 39.832031 18.320312 41.175781 C 29.601562 42.519531 39.835938 34.464844 41.179688 23.183594 C 42.527344 11.902344 34.472656 1.667969 23.191406 0.324219 C 11.910156 -1.023438 1.675781 7.03125 0.328125 18.3125 Z M 0.328125 18.3125 " clip-rule="nonzero"/></clipPath><clipPath id="e3c52920e7"><rect x="0" width="42" y="0" height="42"/></clipPath></defs><g clip-path="url(#1cfa3a0e5b)"><g clip-path="url(#5f3be9f83b)"><g clip-path="url(#d366240916)"><g transform="matrix(1, 0, 0, 1, 4, 4)"><g clip-path="url(#5fc004da75)"><g clip-path="url(#f4cb4a8d66)"><g clip-path="url(#3d8759bea0)"><g clip-path="url(#26dc766704)"><path fill="#fdf9f7" d="M 6.050781 -4 L 51.507812 6.050781 L 41.457031 51.511719 L -4 41.460938 Z M 6.050781 -4 " fill-opacity="1" fill-rule="nonzero"/></g></g></g></g></g></g></g></g><g clip-path="url(#cec2f16b4f)"><g clip-path="url(#f4f280cb23)"><g clip-path="url(#074881813e)"><path fill="#0b0019" d="M 49.484375 26.0625 C 49.675781 29.789062 48.878906 33.316406 47.316406 36.679688 C 46.480469 38.484375 45.402344 40.140625 44.125 41.675781 C 42.152344 44.042969 39.8125 45.949219 37.089844 47.386719 C 35.121094 48.425781 33.039062 49.167969 30.84375 49.546875 C 29.625 49.757812 28.386719 49.960938 27.140625 49.894531 C 26.300781 49.851562 25.457031 49.835938 24.617188 49.761719 C 22.265625 49.554688 20.0625 48.878906 17.9375 47.894531 C 16.363281 47.164062 14.929688 46.207031 13.582031 45.113281 C 12.695312 44.386719 11.902344 43.574219 11.152344 42.707031 C 10.945312 42.46875 10.921875 42.179688 11.113281 42.027344 C 11.351562 41.835938 11.582031 41.894531 11.785156 42.109375 C 12.195312 42.546875 12.59375 42.992188 13.023438 43.410156 C 15.4375 45.757812 18.261719 47.382812 21.503906 48.289062 C 22.769531 48.640625 24.054688 48.867188 25.375 48.953125 C 26.0625 48.996094 26.753906 49.046875 27.4375 49.042969 C 28.167969 49.042969 28.90625 48.941406 29.636719 48.84375 C 31.050781 48.65625 32.441406 48.335938 33.789062 47.859375 C 36.078125 47.046875 38.183594 45.90625 40.085938 44.386719 C 41.191406 43.507812 42.226562 42.5625 43.148438 41.496094 C 44.835938 39.535156 46.160156 37.347656 47.109375 34.933594 C 47.675781 33.492188 48.082031 32.007812 48.339844 30.480469 C 48.445312 29.863281 48.496094 29.242188 48.566406 28.621094 C 48.75 27.058594 48.710938 25.488281 48.476562 23.949219 C 48.152344 21.800781 47.550781 19.710938 46.589844 17.742188 C 45.839844 16.199219 44.925781 14.765625 43.816406 13.457031 C 42.511719 11.917969 41.011719 10.605469 39.300781 9.527344 C 37.078125 8.128906 34.683594 7.203125 32.097656 6.746094 C 30.382812 6.445312 28.652344 6.320312 26.925781 6.488281 C 23.78125 6.792969 20.8125 7.699219 18.074219 9.292969 C 16.292969 10.328125 14.6875 11.585938 13.242188 13.066406 C 11.210938 15.148438 9.667969 17.539062 8.550781 20.214844 C 7.738281 22.160156 7.230469 24.191406 7.011719 26.289062 C 6.910156 27.28125 6.855469 28.28125 6.898438 29.28125 C 7 31.652344 7.414062 33.960938 8.28125 36.179688 C 8.335938 36.320312 8.402344 36.460938 8.4375 36.601562 C 8.480469 36.792969 8.464844 37.007812 8.25 37.058594 C 8.054688 37.109375 7.800781 37.238281 7.652344 36.933594 C 7.417969 36.453125 7.238281 35.953125 7.082031 35.449219 C 6.6875 34.1875 6.359375 32.910156 6.210938 31.589844 C 6.058594 30.207031 5.949219 28.816406 6.03125 27.429688 C 6.277344 23.332031 7.492188 19.53125 9.71875 16.066406 C 10.636719 14.636719 11.695312 13.3125 12.910156 12.125 C 15.132812 9.953125 17.675781 8.25 20.578125 7.105469 C 21.964844 6.558594 23.390625 6.15625 24.851562 5.878906 C 26.386719 5.585938 27.949219 5.503906 29.5 5.5625 C 32.25 5.667969 34.894531 6.3125 37.398438 7.472656 C 39.046875 8.238281 40.570312 9.207031 41.960938 10.378906 C 45.363281 13.242188 47.605469 16.847656 48.777344 21.121094 C 49 21.929688 49.148438 22.757812 49.300781 23.582031 C 49.449219 24.402344 49.449219 25.234375 49.484375 26.0625 Z M 49.484375 26.0625 " fill-opacity="1" fill-rule="nonzero"/></g></g></g><g clip-path="url(#dd1e4c3350)"><g clip-path="url(#1c7b54b5a0)"><g clip-path="url(#3a845d40d3)"><g transform="matrix(1, 0, 0, 1, 7, 7)"><g clip-path="url(#e3c52920e7)"><g clip-path="url(#6c18c299f2)"><g clip-path="url(#7b28f13f46)"><g clip-path="url(#6e66854e5e)"><path fill="#ffcc00" d="M -2.105469 38.738281 L 2.765625 -2.113281 L 43.617188 2.757812 L 38.746094 43.609375 Z M -2.105469 38.738281 " fill-opacity="1" fill-rule="nonzero"/></g></g></g></g></g></g></g></g></svg>